<?xml version="1.0" standalone="no"?>
<!DOCTYPE svg PUBLIC "-//W3C//DTD SVG 20010904//EN"
 "http://www.w3.org/TR/2001/REC-SVG-20010904/DTD/svg10.dtd">
<svg version="1.0" xmlns="http://www.w3.org/2000/svg"
 width="67" height="59" viewBox="0 0 512.000000 512.000000"
 preserveAspectRatio="xMidYMid meet">

<g transform="translate(0.000000,512.000000) scale(0.100000,-0.100000)"
fill="#FCEBD5" stroke="none">
<path d="M2509 4846 c-25 -7 -58 -22 -75 -33 -16 -12 -302 -295 -635 -630
-496 -497 -609 -615 -620 -648 -37 -114 10 -227 113 -270 31 -12 87 -15 317
-15 l280 0 3 -803 3 -803 30 -59 c34 -66 101 -125 165 -144 52 -15 888 -15
940 0 64 19 131 78 165 144 l30 59 3 803 3 803 280 0 c230 0 286 3 317 15 110
46 157 177 104 286 -32 66 -1244 1273 -1292 1287 -65 19 -85 20 -131 8z"/>
<path d="M155 2646 c-58 -27 -99 -65 -129 -121 -21 -39 -21 -48 -24 -640 -2
-503 0 -616 13 -699 71 -455 413 -810 871 -903 84 -17 185 -18 1674 -18 1489
0 1590 1 1674 18 458 93 800 448 871 903 13 83 15 196 13 699 -3 592 -3 601
-24 640 -102 191 -354 191 -457 0 -22 -39 -22 -48 -27 -665 -5 -530 -8 -632
-21 -670 -67 -194 -208 -334 -394 -393 l-70 -22 -1565 0 -1565 0 -70 22 c-186
59 -327 199 -394 393 -13 38 -16 140 -21 670 -5 617 -5 626 -27 665 -67 125
-209 177 -328 121z"/>
</g>
</svg>
